<?xml version="1.0" encoding="UTF-8" standalone="no"?>
<svg
   t="1639477290150"
   class="icon"
   viewBox="0 0 1129 1024"
   version="1.1"
   p-id="8956"
   width="32"
   height="32"
   id="svg2"
   sodipodi:docname="bilibili.svg"
   inkscape:version="1.3.2 (091e20ef0f, 2023-11-25)"
   xmlns:inkscape="http://www.inkscape.org/namespaces/inkscape"
   xmlns:sodipodi="http://sodipodi.sourceforge.net/DTD/sodipodi-0.dtd"
   xmlns="http://www.w3.org/2000/svg"
   xmlns:svg="http://www.w3.org/2000/svg">
  <defs
     id="defs2" />
  <sodipodi:namedview
     id="namedview2"
     pagecolor="#ffffff"
     bordercolor="#000000"
     borderopacity="0.25"
     inkscape:showpageshadow="2"
     inkscape:pageopacity="0.0"
     inkscape:pagecheckerboard="0"
     inkscape:deskcolor="#d1d1d1"
     inkscape:zoom="45.875"
     inkscape:cx="15.989101"
     inkscape:cy="16"
     inkscape:window-width="3072"
     inkscape:window-height="1791"
     inkscape:window-x="0"
     inkscape:window-y="0"
     inkscape:window-maximized="1"
     inkscape:current-layer="svg2" />
  <rect
     style="fill:#ffffff;stroke-width:35.2812"
     id="rect2"
     width="935.57812"
     height="624.50964"
     x="113.49426"
     y="286.77066" />
  <path
     d="M234.909 9.656a80.468 80.468 0 0 1 68.398 0 167.374 167.374 0 0 1 41.843 30.578l160.937 140.82h115.07l160.936-140.82a168.983 168.983 0 0 1 41.843-30.578A80.468 80.468 0 0 1 930.96 76.445a80.468 80.468 0 0 1-17.703 53.914 449.818 449.818 0 0 1-35.406 32.187 232.553 232.553 0 0 1-22.531 18.508h100.585a170.593 170.593 0 0 1 118.289 53.109 171.397 171.397 0 0 1 53.914 118.288v462.693a325.897 325.897 0 0 1-4.024 70.007 178.64 178.64 0 0 1-80.468 112.656 173.007 173.007 0 0 1-92.539 25.75H212.377a341.186 341.186 0 0 1-72.421-4.024A177.835 177.835 0 0 1 28.91 939.065a172.202 172.202 0 0 1-27.36-92.539V388.662a360.498 360.498 0 0 1 0-66.789A177.03 177.03 0 0 1 162.487 178.64h105.414c-16.899-12.07-31.383-26.555-46.672-39.43a80.468 80.468 0 0 1-25.75-65.984 80.468 80.468 0 0 1 39.43-63.57M216.4 321.873a80.468 80.468 0 0 0-63.57 57.937 108.632 108.632 0 0 0 0 30.578v380.615a80.468 80.468 0 0 0 55.523 80.469 106.218 106.218 0 0 0 34.601 5.632h654.208a80.468 80.468 0 0 0 76.444-47.476 112.656 112.656 0 0 0 8.047-53.109v-354.06a135.187 135.187 0 0 0 0-38.625 80.468 80.468 0 0 0-52.304-54.719 129.554 129.554 0 0 0-49.89-7.242H254.22a268.764 268.764 0 0 0-37.82 0z m0 0"
     fill="#20B0E3"
     p-id="8957"
     id="path1" />
  <path
     d="M348.369 447.404a80.468 80.468 0 0 1 55.523 18.507 80.468 80.468 0 0 1 28.164 59.547v80.468a80.468 80.468 0 0 1-16.094 51.5 80.468 80.468 0 0 1-131.968-9.656 104.609 104.609 0 0 1-10.46-54.719v-80.468a80.468 80.468 0 0 1 70.007-67.593z m416.02 0a80.468 80.468 0 0 1 86.102 75.64v80.468a94.148 94.148 0 0 1-12.07 53.11 80.468 80.468 0 0 1-132.773 0 95.757 95.757 0 0 1-12.875-57.133V519.02a80.468 80.468 0 0 1 70.007-70.812z m0 0"
     fill="#20B0E3"
     p-id="8958"
     id="path2" />
</svg>
