<?xml version="1.0" encoding="UTF-8" standalone="no"?>
<svg
   t="1639476354730"
   class="icon"
   viewBox="0 0 1024 1024"
   version="1.1"
   p-id="5626"
   width="32"
   height="32"
   id="svg1"
   sodipodi:docname="gitee.svg"
   inkscape:version="1.3.2 (091e20ef0f, 2023-11-25)"
   xmlns:inkscape="http://www.inkscape.org/namespaces/inkscape"
   xmlns:sodipodi="http://sodipodi.sourceforge.net/DTD/sodipodi-0.dtd"
   xmlns="http://www.w3.org/2000/svg"
   xmlns:svg="http://www.w3.org/2000/svg">
  <defs
     id="defs1" />
  <sodipodi:namedview
     id="namedview1"
     pagecolor="#ffffff"
     bordercolor="#000000"
     borderopacity="0.25"
     inkscape:showpageshadow="2"
     inkscape:pageopacity="0.0"
     inkscape:pagecheckerboard="0"
     inkscape:deskcolor="#d1d1d1"
     inkscape:zoom="45.875"
     inkscape:cx="15.989101"
     inkscape:cy="16"
     inkscape:window-width="3072"
     inkscape:window-height="1791"
     inkscape:window-x="0"
     inkscape:window-y="0"
     inkscape:window-maximized="1"
     inkscape:current-layer="svg1" />
  <ellipse
     style="fill:#ffffff;stroke-width:33.1015;fill-opacity:1"
     id="path2"
     cx="514.74292"
     cy="511.82959"
     rx="486.83356"
     ry="491.32886" />
  <path
     d="M512 1024C229.222 1024 0 794.778 0 512S229.222 0 512 0s512 229.222 512 512-229.222 512-512 512z m259.149-568.883h-290.74a25.293 25.293 0 0 0-25.292 25.293l-0.026 63.206c0 13.952 11.315 25.293 25.267 25.293h177.024c13.978 0 25.293 11.315 25.293 25.267v12.646a75.853 75.853 0 0 1-75.853 75.853h-240.23a25.293 25.293 0 0 1-25.267-25.293V417.203a75.853 75.853 0 0 1 75.827-75.853h353.946a25.293 25.293 0 0 0 25.267-25.292l0.077-63.207a25.293 25.293 0 0 0-25.268-25.293H417.152a189.62 189.62 0 0 0-189.62 189.645V771.15c0 13.977 11.316 25.293 25.294 25.293h372.94a170.65 170.65 0 0 0 170.65-170.65V480.384a25.293 25.293 0 0 0-25.293-25.267z"
     fill="#C71D23"
     p-id="5627"
     id="path1" />
</svg>
