<?xml version="1.0" encoding="UTF-8" standalone="no"?>
<svg
   width="32"
   height="32"
   version="1.1"
   id="svg1"
   sodipodi:docname="github.svg"
   inkscape:version="1.3.2 (091e20ef0f, 2023-11-25)"
   xmlns:inkscape="http://www.inkscape.org/namespaces/inkscape"
   xmlns:sodipodi="http://sodipodi.sourceforge.net/DTD/sodipodi-0.dtd"
   xmlns="http://www.w3.org/2000/svg"
   xmlns:svg="http://www.w3.org/2000/svg">
  <defs
     id="defs1" />
  <sodipodi:namedview
     id="namedview1"
     pagecolor="#ffffff"
     bordercolor="#000000"
     borderopacity="0.25"
     inkscape:showpageshadow="2"
     inkscape:pageopacity="0.0"
     inkscape:pagecheckerboard="0"
     inkscape:deskcolor="#d1d1d1"
     inkscape:zoom="15.291667"
     inkscape:cx="43.389645"
     inkscape:cy="30.735694"
     inkscape:window-width="3072"
     inkscape:window-height="1791"
     inkscape:window-x="0"
     inkscape:window-y="0"
     inkscape:window-maximized="1"
     inkscape:current-layer="svg1" />
  <path
     fill-rule="evenodd"
     clip-rule="evenodd"
     d="m 15.991117,0.68902113 c -8.6538093,0 -15.64957172,7.04733627 -15.64957172,15.76585287 0,6.969174 4.48242652,12.868435 10.70073972,14.956369 0.777449,0.156964 1.062226,-0.339233 1.062226,-0.756628 0,-0.3655 -0.02563,-1.618325 -0.02563,-2.923684 C 7.7255508,28.67079 6.8190071,25.851536 6.8190071,25.851536 6.119399,24.024353 5.0828,23.554744 5.0828,23.554744 3.6579565,22.588939 5.1865877,22.588939 5.1865877,22.588939 c 1.5805256,0.104424 2.4098687,1.618325 2.4098687,1.618325 1.3988964,2.401219 3.6530826,1.722752 4.5599476,1.305039 0.129415,-1.01802 0.544246,-1.722754 0.984704,-2.114202 -3.4720941,-0.3655 -7.1251771,-1.722753 -7.1251771,-7.778657 0,-1.722753 0.6214471,-3.132221 1.6061522,-4.228401 -0.1553619,-0.391448 -0.6996085,-2.0100941 0.1556816,-4.1765088 0,0 1.3213759,-0.4177149 4.3007983,1.6183244 a 15.046062,15.046062 0 0 1 3.912553,-0.5221434 c 1.321375,0 2.668378,0.1829103 3.912232,0.5221434 2.979742,-2.0360393 4.301117,-1.6183244 4.301117,-1.6183244 0.855291,2.1664147 0.310723,3.7850608 0.155362,4.1765088 1.010652,1.09618 1.606472,2.505648 1.606472,4.228401 0,6.055904 -3.653083,7.386889 -7.151124,7.778657 0.570194,0.495877 1.062226,1.435415 1.062226,2.923363 0,2.114201 -0.02563,3.811008 -0.02563,4.332831 0,0.417715 0.285097,0.913912 1.062225,0.757268 C 27.132313,29.322989 31.61474,23.424048 31.61474,16.454874 31.640367,7.7363574 24.618978,0.68902113 15.991117,0.68902113 Z"
     fill="#ffffff"
     id="path1"
     style="stroke:#000000;stroke-width:0.256267;stroke-dasharray:none;stroke-opacity:1" />
</svg>
