<?xml version="1.0" encoding="UTF-8" standalone="no"?>
<svg
   t="1728291142080"
   class="icon"
   viewBox="0 0 1024 1024"
   version="1.1"
   p-id="5234"
   width="50"
   height="50"
   id="svg5"
   sodipodi:docname="Qt.svg"
   inkscape:version="1.3.2 (091e20ef0f, 2023-11-25)"
   xmlns:inkscape="http://www.inkscape.org/namespaces/inkscape"
   xmlns:sodipodi="http://sodipodi.sourceforge.net/DTD/sodipodi-0.dtd"
   xmlns="http://www.w3.org/2000/svg"
   xmlns:svg="http://www.w3.org/2000/svg">
  <defs
     id="defs5" />
  <sodipodi:namedview
     id="namedview5"
     pagecolor="#ffffff"
     bordercolor="#000000"
     borderopacity="0.25"
     inkscape:showpageshadow="2"
     inkscape:pageopacity="0.0"
     inkscape:pagecheckerboard="0"
     inkscape:deskcolor="#d1d1d1"
     inkscape:zoom="7.34"
     inkscape:cx="7.0163488"
     inkscape:cy="54.223433"
     inkscape:window-width="3072"
     inkscape:window-height="1791"
     inkscape:window-x="0"
     inkscape:window-y="0"
     inkscape:window-maximized="1"
     inkscape:current-layer="svg5" />
  <path
     d="M511.232 267.1616a239.4112 239.4112 0 1 0 0 478.72 239.4112 239.4112 0 0 0 0-478.72z m0 359.5776a120.1152 120.1152 0 0 1-120.2176-120.2176 120.1152 120.1152 0 0 1 120.2176-120.1664 120.1152 120.1152 0 0 1 120.1664 120.1664 120.1152 120.1152 0 0 1-120.1664 120.2176z"
     fill="#FFFFFF"
     p-id="5237"
     id="path3" />
  <path
     d="M870.4 674.6112c0 12.288-3.5328 24.2176-9.728 34.3552L509.2352 506.5216l352.1024-202.6496c5.4784 9.5744 8.3968 20.3264 8.3968 31.6416L870.4 674.6112z"
     fill="#005A92"
     p-id="5238"
     id="path4" />
  <path
     d="M750.592 491.8784v27.3408h-27.3408v27.392h-27.3408v-27.392h-27.392v-27.3408h27.392v-27.3408h27.3408v27.3408h27.3408zM851.2512 492.8512v27.3408h-27.3408v27.392h-27.392v-27.392h-27.3408v-27.3408h27.3408v-27.3408h27.392v27.3408h27.3408z"
     fill="#FFFFFF"
     p-id="5239"
     id="path5" />
  <g
     id="g2"
     transform="matrix(1.6180568,0,0,1.6180568,144.96588,249.60662)">
    <path
       fill="#41cd52"
       d="M 63.5,0 H 462 V 274.79 C 440.6,296.26 419.13,317.66 397.61,339 H 0 V 63.39 C 21.08,42.18 42.34,21.13 63.5,0 Z"
       id="path6" />
    <path
       d="M 122.37,71.33 C 137.5,61.32 156.21,58.79 174,58.95 c 16.94,0.21 34.72,3.18 48.76,13.29 10.2,7.17 16.83,18.24 21.25,29.69 7.15,18.8 9.25,39.1 9.49,59.08 0.03,20.12 -0.88,40.68 -7.54,59.85 -4.46,13.04 -12.95,24.62 -24.15,32.66 8.06,13.06 16.28,26.02 24.34,39.08 -10.13,4.67 -20.23,9.37 -30.37,14.02 -8.63,-14.24 -17.22,-28.51 -25.88,-42.73 -11.71,1.92 -23.69,1.77 -35.46,0.47 -14.1,-1.69 -28.47,-5.99 -39.35,-15.48 -8.36,-7.24 -13.61,-17.37 -17.2,-27.67 -5.88,-17.42 -7.46,-35.96 -7.73,-54.24 -0.14,-19.76 1.12,-39.83 7.08,-58.79 4.61,-14.26 12.24,-28.49 25.13,-36.85 z"
       id="path8"
       fill="#ffffff" />
    <path
       d="m 294.13,70.69 c 10.6,-0.01 21.2,-0.01 31.8,0 0.03,14.02 -0.01,28.03 0.02,42.05 13.55,0.02 27.1,0 40.65,0.01 -0.23,9.1 -0.48,18.2 -0.74,27.3 -13.54,0.03 -27.07,-0.01 -40.61,0.02 0.03,22.98 -0.07,45.96 0.05,68.94 0.26,6.29 0.12,12.93 2.89,18.74 2.02,4.48 7.46,5.63 11.89,5.78 8.35,-0.03 16.69,-0.52 25.04,-0.67 0.51,8.36 1,16.73 1.48,25.09 -16.61,2.79 -34.04,6.13 -50.54,0.91 -6.95,-2.06 -13.43,-6.67 -16.25,-13.54 -5.05,-11.69 -5.46,-24.7 -5.68,-37.25 -0.02,-22.67 0,-45.33 -0.01,-68 -7.39,-0.02 -14.78,0.01 -22.17,-0.02 -0.02,-9.09 -0.02,-18.19 0,-27.29 7.39,-0.03 14.77,0.01 22.16,-0.02 0.03,-14.02 -0.01,-28.03 0.02,-42.05 z"
       id="path10"
       fill="#ffffff" />
    <path
       fill="#41cd52"
       d="m 160.51,87.7 c 10.29,-1.34 21.09,-0.98 30.83,2.91 7.89,3.12 14.59,9.23 18.13,16.97 5.43,11.73 7.51,24.68 8.56,37.47 1.14,17.02 0.98,34.2 -1.37,51.12 -1.65,10.07 -4,20.68 -10.82,28.62 -6.92,7.97 -17.59,11.39 -27.83,12.19 -10.8,0.79 -22.19,0 -31.94,-5.11 -5.69,-3.03 -10.52,-7.78 -13.34,-13.6 -3.42,-6.97 -5.3,-14.58 -6.62,-22.2 -3.98,-24.16 -4.94,-49.16 0.5,-73.18 2.24,-9.06 5.5,-18.36 12.12,-25.19 5.76,-5.85 13.78,-8.87 21.78,-10 z"
       id="path12" />
  </g>
</svg>
